<svg width="264" height="393" viewBox="0 0 264 393" fill="none" xmlns="http://www.w3.org/2000/svg">
<path d="M129.127 392.194C183.341 392.194 227.291 382.277 227.291 370.044C227.291 357.811 183.341 347.894 129.127 347.894C74.9131 347.894 30.9639 357.811 30.9639 370.044C30.9639 382.277 74.9131 392.194 129.127 392.194Z" fill="#7A54DE"/>
<path fill-rule="evenodd" clip-rule="evenodd" d="M199.347 135.069C197.828 135.747 196.283 136.474 194.716 137.134C190.716 138.83 186.567 137.687 184.141 134.12C183.342 132.951 182.811 131.588 182.204 130.295C181.836 129.519 181.634 128.66 181.25 127.899C180.504 126.413 178.904 126.04 177.688 127.082C176.933 127.733 176.34 128.578 175.569 129.211C172.336 131.846 167.56 131.58 164.692 128.545C162.011 125.714 160.767 122.21 160.714 118.351C160.688 116.499 161.092 114.648 161.358 112.799C161.459 112.09 161.85 111.409 161.861 110.714C161.862 110.059 161.725 109.177 161.293 108.808C160.869 108.448 159.923 108.37 159.355 108.586C158.294 108.971 157.342 109.655 156.347 110.214C154.017 111.516 151.521 111.878 148.904 111.58C143.783 111.006 141.151 108.152 141.294 102.999C141.335 101.305 141.83 99.6125 142.163 97.9302C142.274 97.3776 142.701 96.829 142.656 96.3114C142.608 95.6626 142.353 94.9074 141.924 94.4568C141.636 94.1509 140.825 94.1441 140.34 94.2973C139.684 94.5012 139.128 95.0284 138.499 95.3562C136.222 96.5376 134.018 97.9428 131.631 98.8251C124.752 101.352 119.259 97.5851 118.89 90.1349C118.809 88.4448 119.217 86.7244 119.453 85.022C119.553 84.3216 119.986 83.6176 119.922 82.9518C119.865 82.3354 119.467 81.5011 118.982 81.253C118.472 81.004 117.644 81.2504 117.018 81.4719C116.681 81.5899 116.475 82.1061 116.21 82.4398C113.404 86.0001 109.502 87.6755 105.326 88.8735C105.055 88.9531 104.769 89.0076 104.492 89.046C98.6914 89.8945 94.719 86.6781 94.4292 80.7459C94.2996 78.0139 94.4618 75.2849 95.2706 72.6219C95.6046 71.5374 95.7956 70.3737 95.8395 69.2371C95.8961 67.7734 94.3554 66.9195 93.1168 67.6905C92.2772 68.2149 91.5745 68.9739 90.7345 69.5065C88.93 70.6488 87.1475 71.8492 85.2378 72.7745C83.2536 73.7378 81.1002 73.6218 78.9523 73.1539C75.7178 72.4637 73.8027 70.588 73.5518 66.3772C73.3111 62.3223 74.8917 58.7883 77.4214 55.6759C78.1027 54.8423 78.9833 54.5161 80.0336 54.4175C81.5158 54.27 82.8212 53.6571 83.6416 52.3704C83.9956 51.819 84.2608 51.0431 84.1792 50.4257C84.0623 49.463 83.1647 48.9697 82.3051 48.9611C81.3483 48.9487 80.2802 49.0875 79.4363 49.5135C77.9223 50.2739 76.5133 50.6289 75.0009 49.6696C73.2276 48.5364 71.9897 46.9817 71.7314 44.8507C71.2578 40.9424 72.0757 37.4116 74.9848 34.5596C77.8517 31.7468 81.3147 30.0954 85.2268 29.6243C88.3242 29.2445 91.4697 29.3006 94.5897 29.1755C95.1583 29.1566 95.7377 29.2772 96.292 29.2086C97.7099 29.0423 98.7397 27.7964 98.174 26.4806C97.2437 24.3154 97.9788 22.5094 98.8833 20.7263C101.273 15.987 104.816 12.2749 109.363 9.63362C110.691 8.86601 112.251 8.37765 113.77 8.117C118.475 7.2916 120.982 8.5514 123.385 12.6817C126.085 17.3312 126.598 17.5066 130.731 14.2514C134.128 11.5738 137.895 10.2454 142.177 10.0752C145.321 9.95104 148.477 9.73731 151.547 10.5029C153.451 10.9778 155.388 11.6506 157.069 12.6573C159.662 14.2071 161.15 16.6232 161.084 19.8063C161.064 20.5262 160.922 21.2741 161.074 21.9515C161.228 22.5962 161.563 23.3626 162.068 23.7179C162.835 24.2471 163.7 23.912 164.389 23.2753C164.6 23.0787 164.826 22.8991 165.005 22.6768C168.585 18.4011 173.355 17.9959 178.313 18.8099C181.714 19.3673 184.776 20.9598 187.428 23.2898C190.065 25.5947 191.432 28.4237 191.465 31.971C191.506 36.7798 191.545 36.8141 195.991 38.0751C201.456 39.6213 206.232 42.3938 210.391 46.2316C211.535 47.2831 212.599 48.5117 213.366 49.8599C215.084 52.8581 214.684 55.2175 212.301 57.6805C211.803 58.1935 211.187 58.5956 210.713 59.1177C209.544 60.391 209.673 61.8783 211.057 62.7999C211.887 63.3561 212.813 63.7522 213.686 64.2446C216.323 65.7142 218.787 67.4309 220.852 69.6482C221.825 70.6849 222.788 71.795 223.479 73.0255C225.111 75.9221 224.991 78.8165 222.9 81.4873C222.192 82.3853 221.382 83.2057 220.627 84.0691C219.022 85.9234 218.838 87.9473 220.071 90.0423C220.939 91.5253 221.93 92.9395 222.848 94.3917C223.765 95.8521 224.74 97.282 225.508 98.8104C226.005 99.8123 226.276 100.969 226.469 102.082C226.714 103.509 226.126 104.657 224.781 105.235C223.609 105.747 222.385 106.15 221.162 106.529C220.07 106.863 218.92 107.007 217.858 107.408C215.29 108.365 214.48 110.431 215.722 112.935C216.226 113.954 216.937 114.874 217.615 115.801C218.37 116.846 219.241 117.813 219.979 118.865C222.778 122.847 222.706 125.752 219.54 129.372C215.891 133.546 211.427 136.117 205.699 135.912C204.573 135.869 203.418 136.16 202.303 136.035C201.328 135.882 200.413 135.413 199.347 135.069Z" fill="#FFD600"/>
<path fill-rule="evenodd" clip-rule="evenodd" d="M75.8598 76.0891C81.0028 77.9831 85.798 77.3332 90.7688 74.2415C90.7344 76.5987 90.7239 78.1297 90.6813 79.6512C90.6031 82.3016 91.1061 84.8188 92.3959 87.1289C94.1028 90.1922 96.6007 92.0986 100.125 92.6443C103.632 93.1894 106.933 92.5964 110.151 91.1976C111.562 90.5888 112.964 89.9878 114.671 89.2595C114.918 90.2108 115.088 90.8644 115.249 91.5176C115.531 92.6258 115.713 93.7794 116.11 94.8511C118.655 101.616 123.755 104.638 131.491 102.824C133.276 102.41 134.971 101.583 137.011 100.843C137.154 101.749 137.312 102.509 137.387 103.282C138.136 111.402 142.008 115.114 150.155 115.281C152.262 115.322 154.378 114.945 156.649 114.738C157.534 115.78 157.012 117.119 156.997 118.322C156.957 121.899 157.982 125.166 159.74 128.174C161.452 131.098 163.751 133.332 167.17 134.283C170.22 135.13 173.081 134.979 175.88 133.506C176.733 133.056 177.587 132.581 178.556 132.062C179.363 133.445 180.028 134.707 180.809 135.9C183.269 139.639 186.722 141.599 191.194 141.747C193.114 141.813 194.875 141.374 196.526 140.43C197.505 139.87 198.454 139.252 199.351 138.705C200.399 139.294 199.965 140.023 199.74 140.612C197.747 145.571 195.166 150.23 192.157 154.617C188.589 159.827 184.91 164.959 180.555 169.54C173.96 176.467 166.555 182.282 157.791 186.128C150.24 189.439 142.366 191.051 134.054 190.754C126.317 190.48 118.703 189.563 111.168 187.855C102.716 185.931 95.1116 182.231 87.9193 177.317C80.6401 172.343 75.1716 165.859 70.5977 158.475C65.321 149.967 63.0517 140.47 62.4603 130.587C61.7955 119.457 62.8382 108.433 65.4483 97.5767C67.2677 89.9655 70.9144 82.3019 75.8598 76.0891ZM98.8076 144.547C98.6772 148.759 99.0929 152.903 100.08 156.97C101.64 163.394 107.892 169.122 114.097 169.993C121.617 171.045 127.698 168.627 131.629 161.982C134.103 157.802 136.142 153.336 138.075 148.866C139.483 145.603 138.595 143.8 135.419 142.236C134.527 141.8 133.583 141.469 132.629 141.17C129.912 140.32 127.177 139.502 124.45 138.7C116.902 136.484 109.055 135.894 101.346 134.506C100.894 134.424 99.8762 135.162 99.8096 135.626C99.3708 138.582 99.1174 141.57 98.8076 144.547ZM95.894 114.993C95.8485 114.492 95.8031 113.778 95.6844 113.069C95.3634 111.091 94.4109 109.498 92.4896 108.834C90.3282 108.087 88.2359 108.49 86.4741 109.994C84.2089 111.929 83.2839 116.971 84.7 119.581C85.7523 121.529 87.3952 122.469 89.6333 122.286C93.0185 122.015 95.7585 118.919 95.894 114.993ZM151.35 137.455C150.955 140.748 153.317 144.484 155.975 144.767C158.625 145.05 162.046 142.602 162.391 140.175C162.867 136.877 160.62 133.531 157.612 133.062C154.435 132.571 151.708 134.48 151.35 137.455Z" fill="#F4D1C2"/>
<path fill-rule="evenodd" clip-rule="evenodd" d="M174.344 293.73C171.791 295.752 165.638 298.782 162.939 299.349C160.658 299.826 159.387 299.334 158.33 297.279C157.606 295.883 157.03 294.395 156.529 292.894C155.88 290.993 155.404 289.034 154.805 287.111C154.019 284.583 153.53 284.22 150.876 284.052C150.163 284.008 149.445 283.914 148.737 283.969C142.404 284.518 136.258 283.192 130.073 282.215C126.695 281.675 123.296 281.249 119.927 280.693C117.823 280.35 115.703 279.997 113.658 279.394C111.965 278.895 110.671 279.434 109.81 281.137C109.485 281.78 109.271 282.476 108.971 283.119C106.855 287.681 104.82 292.278 102.561 296.769C100.593 300.689 99.9494 300.959 95.8105 299.743C92.0002 298.629 88.2654 297.24 84.7898 296.074C83.9323 294.542 84.3002 293.418 84.7301 292.37C85.4377 290.644 86.2892 288.974 87.1008 287.286C89.0167 283.265 90.9325 279.244 92.8642 275.233C93.6668 273.568 94.5409 271.94 95.4879 270.109C98.3614 270.482 101.015 270.88 103.689 271.171C119.167 272.867 134.671 274.081 150.195 271.848C154.396 271.248 158.489 269.892 163.017 268.797C163.364 269.278 164.042 270 164.431 270.842C167.766 278.161 171.051 285.511 174.329 292.853C174.416 293.118 174.33 293.443 174.344 293.73Z" fill="#FFE7A4"/>
<path fill-rule="evenodd" clip-rule="evenodd" d="M93.7828 248.555C93.7814 243.764 94.7836 239.037 95.6247 234.278C97.8101 233.986 99.585 234.448 101.358 234.967C110.029 237.505 118.909 238.626 127.9 238.998C130.888 239.122 133.866 239.106 136.821 238.442C140.994 237.506 145.224 237.007 149.495 236.689C152.725 236.453 155.91 235.684 159.135 235.145C160.477 237.785 162.476 246.305 162.779 250.846C151.869 254.813 140.615 255.492 129.179 254.165C119.561 253.048 109.952 251.874 100.354 250.66C98.133 250.394 95.7817 250.36 93.7828 248.555Z" fill="#0AFA53"/>
<path fill-rule="evenodd" clip-rule="evenodd" d="M96.395 229.608C96.6752 225.508 97.3657 221.497 98.2372 217.42C104.995 218.263 111.336 218.966 117.653 219.858C123.906 220.738 130.124 220.848 136.362 219.819C137.203 219.68 138.053 219.524 138.905 219.508C144.441 219.419 149.968 219.354 155.698 219.289C157.099 222.709 157.646 226.383 158.604 230.163C157.912 230.635 157.304 231.242 156.564 231.517C154.431 232.335 152.232 232.774 149.921 232.947C146.098 233.225 142.233 233.51 138.495 234.307C133.546 235.36 128.636 235.416 123.645 235.06C114.802 234.423 106.224 232.42 97.6689 230.231C97.2748 230.142 96.9279 229.883 96.395 229.608Z" fill="#469539"/>
<path fill-rule="evenodd" clip-rule="evenodd" d="M92.2728 265.137C92.1709 260.85 92.3944 257.165 93.0951 253.311C95.0702 253.633 96.858 253.972 98.6662 254.206C106.867 255.276 115.056 256.453 123.28 257.319C129.227 257.951 135.221 258.395 141.205 258.471C147.197 258.547 153.145 257.672 158.958 256.086C160.458 255.678 161.912 255.21 163.352 255.323C163.568 255.601 163.726 255.706 163.738 255.829C164.888 264.268 164.144 263.985 157.335 266.367C154.531 267.348 151.548 267.904 148.596 268.314C138.662 269.682 128.692 269.461 118.707 268.821C111.302 268.354 103.922 267.668 96.6246 266.305C95.2558 266.039 93.9188 265.578 92.2728 265.137Z" fill="#D800B9"/>
<path fill-rule="evenodd" clip-rule="evenodd" d="M245.315 149.417C246.191 151.114 245.74 152.48 245.178 153.818C244.785 154.745 244.248 155.608 243.88 156.536C243.539 157.391 243.574 158.35 244.391 158.849C244.906 159.155 245.772 159.221 246.347 159.023C247.688 158.558 248.926 157.796 250.252 157.282C251.026 156.976 251.897 156.911 252.608 156.767C253.807 157.657 253.508 158.677 253.1 159.57C252.372 161.196 251.086 162.342 249.545 163.175C248.667 163.649 247.759 164.064 246.888 164.563C246.099 165.016 245.471 165.737 245.744 166.648C245.916 167.253 246.474 167.913 247.031 168.188C248.178 168.749 249.466 168.995 250.639 169.507C251.636 169.947 252.773 170.335 253.056 171.623C252.075 173.076 250.472 172.785 249.157 173.217C248.221 173.516 247.188 173.567 246.267 173.9C245.107 174.321 244.697 175.681 245.369 176.764C245.896 177.611 246.581 178.358 247.116 179.206C247.415 179.676 247.546 180.255 247.746 180.754C246.246 182.629 244.541 182.866 242.362 182.167C238.588 180.957 235.405 178.934 232.811 175.934C232.531 175.612 232.211 175.297 232.023 174.921C228.842 168.64 225.719 162.352 226.76 154.924C227.028 153.043 227.526 151.268 228.481 149.643C228.829 149.059 229.405 148.614 229.913 148.069C232.638 149.361 233.517 151.795 234.364 154.235C234.693 155.173 234.799 156.201 235.194 157.093C235.687 158.193 237.421 158.243 238.022 157.186C238.44 156.448 238.643 155.596 238.974 154.815C240.235 151.784 241.821 150.404 245.315 149.417Z" fill="#F4D1C2"/>
<path fill-rule="evenodd" clip-rule="evenodd" d="M20.5307 115.209C23.7485 116.332 27.0783 119.172 29.0654 122.541C29.4993 123.278 29.7755 124.108 30.1926 124.861C30.6404 125.656 31.3087 126.206 32.2803 126.047C33.301 125.874 33.6074 125.083 33.635 124.159C33.652 123.3 33.5154 122.426 33.6371 121.588C34.0595 118.426 37.0032 115.936 40.2075 115.937C41.3027 115.938 42.2335 116.621 42.2154 117.718C42.1899 119.429 42.2178 121.223 41.71 122.817C40.6211 126.222 39.2194 129.534 37.8903 132.857C37.2439 134.47 36.4314 135.97 34.6518 136.679C33.8113 137.015 33.5924 137.85 33.371 138.75C32.0287 144.095 27.0724 148.072 21.6381 148.255C21.2561 148.273 20.8603 148.02 20.2117 147.798C20.4933 146.81 20.7157 145.885 21.0424 144.989C21.2873 144.319 21.8049 143.733 21.9526 143.059C22.0907 142.425 22.0811 141.622 21.8026 141.063C21.3582 140.178 20.4082 140.198 19.5404 140.402C18.7135 140.599 17.9194 140.995 17.0875 141.11C15.3747 141.347 13.6384 141.353 12.1448 140.329C11.6075 139.956 10.8821 139.207 10.9571 138.735C11.0746 138.003 11.6478 137.026 12.2826 136.764C13.42 136.3 14.7572 136.335 15.9846 136.063C17.1054 135.82 17.5392 134.044 16.685 133.265C16.2774 132.897 15.7341 132.68 15.2757 132.367C14.5721 131.89 13.8265 131.451 13.2162 130.871C12.4648 130.162 11.9634 129.283 12.4441 128.179C12.9255 127.06 13.6753 126.131 14.9561 126.156C16.2207 126.18 17.4942 126.393 18.7238 126.694C19.5356 126.89 20.2877 127.369 21.043 127.767C21.9092 128.234 22.7071 128.159 23.3823 127.48C24.0828 126.779 23.968 125.972 23.5466 125.12C22.5467 123.075 21.5226 121.029 20.6551 118.915C20.1063 117.584 20.2216 117.539 20.5307 115.209Z" fill="#F4D1C2"/>
<path fill-rule="evenodd" clip-rule="evenodd" d="M153.387 206.465C154.646 209.159 154.499 211.896 155.063 214.735C154.118 215.051 153.355 215.488 152.574 215.54C150.728 215.657 148.868 215.511 147.023 215.596C142.764 215.799 138.504 216.036 134.249 216.338C130.418 216.616 126.605 217.042 122.746 216.557C116.957 215.833 111.147 215.257 105.347 214.607C103.239 214.37 101.142 214.051 99.0894 213.005C99.0587 210.023 99.8618 207.294 100.311 204.29C101.114 204.272 101.819 204.094 102.429 204.265C112.734 207.153 123.282 206.89 133.823 206.814C136.095 206.803 138.372 206.859 140.626 207.11C143.332 207.411 146.003 207.547 148.693 207.004C150.206 206.694 151.758 206.639 153.387 206.465Z" fill="#DDF4E4"/>
<path fill-rule="evenodd" clip-rule="evenodd" d="M152.626 202.25C149.241 203.34 146.056 203.692 142.762 203.499C138.796 203.264 134.815 202.995 130.844 203.079C123.432 203.226 116.044 203.178 108.73 201.823C106.249 201.358 103.69 201.055 101.266 199.519C101.788 196.321 101.647 193.032 103.234 189.752C118.529 193.865 133.892 196.023 149.749 193.155C151.104 196.074 151.856 199.068 152.626 202.25Z" fill="#FF0100"/>
<path fill-rule="evenodd" clip-rule="evenodd" d="M58.5525 111.446C56.1956 110.716 55.0315 108.722 53.9986 106.692C52.2197 103.184 51.377 99.3843 51.1711 95.4782C51.0015 92.3106 51.2129 89.1495 52.0948 86.0634C52.6954 83.9574 53.5897 82.0183 55.1116 80.4229C56.5403 78.9303 58.2348 78.5372 60.1978 79.17C63.8997 80.3614 66.0037 84.0625 64.6396 87.6622C61.974 94.7084 60.467 102.004 59.5222 109.445C59.4652 109.868 59.3516 110.29 59.1822 110.684C59.083 110.943 58.8327 111.121 58.5525 111.446Z" fill="#F4D1C2"/>
<path fill-rule="evenodd" clip-rule="evenodd" d="M37.7769 312.911C37.9347 311.975 38.001 311.101 38.2357 310.275C39.579 305.536 41.7035 301.155 44.3933 297.05C45.445 295.445 46.9595 294.881 48.7784 294.836C50.1913 294.801 51.2603 295.268 51.8808 296.635C52.2996 297.552 52.768 298.447 53.3031 299.294C54.0523 300.478 54.1355 301.685 53.792 303.015C53.4379 304.41 53.1966 305.825 52.8746 307.23C51.8293 311.816 49.2052 315.269 45.4277 317.924C43.7437 319.095 41.9892 319.363 40.1936 318.385C38.3819 317.406 37.7011 315.709 37.7387 313.687C37.7498 313.401 37.769 313.115 37.7769 312.911Z" fill="#AE9859"/>
<path fill-rule="evenodd" clip-rule="evenodd" d="M193.279 160.083C195.515 156.378 197.432 153.381 199.158 150.27C200.823 147.288 202.281 144.192 203.862 141.075C206.418 140.855 208.803 141.266 211.059 142.107C213.962 143.186 214.921 145.221 214.187 148.272C213.993 149.091 213.629 149.904 213.203 150.641C212.132 152.541 210.707 154.148 208.915 155.381C204.456 158.443 199.485 159.873 193.279 160.083Z" fill="#F4D1C2"/>
<path fill-rule="evenodd" clip-rule="evenodd" d="M210.957 305.39C212.633 306.953 214.182 308.422 215.757 309.875C218.114 312.062 219.16 314.805 219.013 317.985C218.93 319.694 218.758 321.431 218.345 323.086C218.115 323.994 217.401 324.835 216.749 325.555C216.071 326.307 214.773 326.289 214.039 325.565C213.437 324.976 212.838 324.298 212.502 323.548C210.373 318.814 209.024 313.84 208.405 308.673C208.208 307.044 208.853 305.89 210.957 305.39Z" fill="#AE9859"/>
<path fill-rule="evenodd" clip-rule="evenodd" d="M83.419 118.105C76.9882 114.687 68.7347 116.031 64.5732 122.323C61.5744 126.867 62.3966 133.507 65.394 138.021C66.9384 141.299 69.9026 143.944 73.3401 144.839C80.512 146.713 86.857 142.487 89.7197 136.005C92.546 129.628 89.3968 121.276 83.419 118.105Z" fill="#EBC6B6"/>
<path fill-rule="evenodd" clip-rule="evenodd" d="M180.073 150.137C177.925 145.255 173.461 142.797 168.528 142.615C165.795 142.157 162.921 142.447 160.397 143.504C152.522 146.803 151.232 156.9 156.005 163.308C160.324 169.11 168.799 171.263 175.002 167.138C180.564 163.447 182.81 156.344 180.073 150.137Z" fill="#EBC6B6"/>
<path fill-rule="evenodd" clip-rule="evenodd" d="M68.1681 80.7806C69.7283 78.1958 71.0546 75.995 72.2851 73.9624C72.2115 73.5583 72.234 73.3954 72.1568 73.2941C68.5219 67.8551 69.4063 62.3942 72.0838 56.929C72.586 55.9001 73.1916 54.9244 73.8278 53.7861C73.0427 53.1088 72.2969 52.4658 71.5508 51.8309C69.2585 49.8506 68.0187 47.2967 67.8179 44.308C67.5132 39.8084 68.6844 35.7427 71.8396 32.4005C76.3399 27.6282 82.0359 25.711 88.3899 25.4489C89.9418 25.386 91.5091 25.5531 92.8457 25.6048C93.2746 25.2119 93.6215 25.0533 93.6543 24.8335C94.7625 18.202 98.6257 13.3313 103.502 9.10573C104.476 8.25893 105.52 7.49672 106.601 6.80149C109.305 5.07159 112.277 4.13829 115.494 4.02517C119.491 3.8767 122.718 5.40181 125.167 8.5757C125.947 9.58041 126.653 10.6314 127.399 11.6757C127.929 11.4177 128.347 11.2947 128.681 11.0456C136.908 4.93497 146.012 5.09861 155.263 7.55274C159.254 8.60788 162.306 11.281 164.002 15.2611C164.225 15.7774 164.49 16.279 164.685 16.6878C165.747 17.3349 166.418 16.5419 167.144 16.2424C175.25 12.846 185.572 15.2843 191.749 22.3203C193.482 24.2954 194.601 26.6153 194.936 29.2734C195.108 30.6887 195.281 32.1121 195.47 33.7082C196.55 34.1184 197.597 34.5274 198.653 34.8958C203.976 36.7559 208.751 39.5693 212.902 43.415C213.951 44.381 214.949 45.435 215.78 46.5973C218.705 50.6822 218.776 54.7141 216.118 59.0418C215.893 59.4098 215.653 59.7608 215.273 60.3358C216.005 60.9292 216.691 61.6354 217.508 62.1256C220.108 63.7002 222.427 65.6243 224.366 67.9268C225.638 69.4337 226.813 71.1579 227.529 72.9873C228.974 76.7202 228.42 80.3512 225.991 83.5903C225.051 84.8397 224.024 86.012 222.891 87.4014C223.777 88.8278 224.585 90.1612 225.41 91.487C226.472 93.1905 227.625 94.8402 228.587 96.6054C229.201 97.7265 229.672 98.9649 229.965 100.213C231.018 104.651 229.606 107.389 225.385 109.126C224.206 109.613 222.924 109.833 221.692 110.22C220.896 110.467 220.121 110.798 219.141 111.161C219.69 112.067 220.083 112.819 220.568 113.501C221.322 114.546 222.177 115.521 222.931 116.574C226.787 121.956 226.588 126.911 222.307 131.888C220.514 133.973 218.451 135.727 216.039 137.059C215.193 137.526 214.385 138.084 213.537 138.616C213.855 138.997 214.007 139.257 214.22 139.413C215.987 140.701 217.58 142.098 217.919 144.461C218.314 147.253 217.975 149.917 216.549 152.385C214.558 155.854 211.747 158.472 208.215 160.235C203.822 162.424 199.208 163.859 194.231 163.757C193.096 163.737 191.963 163.669 190.634 163.618C189.828 164.536 188.948 165.469 188.147 166.461C180.603 175.899 171.619 183.544 160.823 188.949C160.583 189.071 160.388 189.309 159.934 189.701C160.503 190.1 160.962 190.601 161.515 190.786C172.212 194.426 183.044 194.796 193.981 192.025C204.148 189.453 213.767 185.526 222.719 179.984C224.555 178.851 226.298 177.633 227.741 175.551C226.832 173.264 225.853 170.892 224.939 168.506C222.934 163.294 222.085 157.971 223.419 152.429C223.969 150.165 224.782 148.019 226.279 146.217C228.346 143.742 230.993 143.476 233.383 145.657C234.723 146.88 235.817 148.388 237.13 149.88C238.085 149.09 238.896 148.269 239.836 147.667C241.033 146.911 242.274 146.091 243.603 145.708C246.711 144.837 248.946 146.406 249.446 149.635C249.603 150.616 249.564 151.622 249.632 152.804C250.766 152.848 251.852 152.881 252.929 152.931C255.382 153.042 256.577 154.039 257.134 156.419C257.696 158.864 256.909 160.971 255.496 162.89C254.743 163.91 253.872 164.826 252.903 165.968C253.869 166.799 254.768 167.457 255.541 168.24C258.195 170.93 257.764 173.903 254.47 175.593C253.353 176.164 252.137 176.551 250.942 177.038C251.185 178.726 251.58 180.248 251.602 181.78C251.633 184.14 250.977 184.729 248.853 185.547C243.887 187.468 239.611 185.583 235.488 183.123C233.672 182.037 232.074 180.567 230.223 179.144C228.635 180.344 227.132 181.653 225.47 182.686C213.293 190.241 200.235 195.42 185.976 197.235C176.723 198.417 167.79 196.974 159.041 193.925C157.592 193.419 156.144 192.896 154.28 192.234C154.303 193.3 154.162 194.023 154.366 194.604C156.693 201.139 157.671 207.966 158.99 214.749C160.723 223.644 162.955 232.435 164.876 241.289C165.908 246.062 166.866 250.865 167.621 255.702C168.109 258.816 168.333 262.027 166.975 265.062C166.362 266.43 167 267.552 167.555 268.737C169.75 273.424 171.913 278.118 174.076 282.821C174.615 283.996 175.12 285.187 175.609 286.385C176.468 288.523 177.346 290.563 179.292 292.063C180.765 293.201 180.429 294.957 178.816 295.984C176.895 297.204 174.935 298.364 172.783 299.682C172.971 300.696 173.038 301.682 173.352 302.594C174.415 305.723 175.379 308.913 176.732 311.914C177.845 314.373 179.228 316.801 180.907 318.897C184.243 323.047 188.868 323.643 193.012 320.339C198.202 316.191 202.514 311.24 204.88 304.821C206.168 301.308 210.485 300.009 213.265 302.385C215.432 304.238 217.487 306.266 219.426 308.372C220.376 309.4 221.137 310.699 221.662 312.005C223.417 316.339 223.189 320.769 221.619 325.09C220.457 328.296 218.041 329.922 215.181 329.828C213.196 329.759 211.53 328.999 210.434 327.351C209.567 326.049 208.795 324.635 208.259 323.165C207.363 320.739 206.697 318.24 205.909 315.769C205.663 314.998 205.343 314.256 204.93 313.176C203.781 314.565 202.926 315.703 201.961 316.738C200.1 318.722 198.292 320.781 196.259 322.578C189.531 328.542 181.497 326.511 177.264 320.386C175.643 318.038 174.224 315.502 173.076 312.886C171.748 309.87 170.834 306.674 169.721 303.56C169.486 302.92 169.161 302.31 168.795 301.501C167.283 301.983 165.959 302.448 164.622 302.83C159.807 304.208 156.61 302.766 154.508 298.172C153.737 296.48 153.215 294.667 152.61 292.907C152.092 291.421 151.614 289.92 151.077 288.294C150.061 288.132 149.077 287.775 148.132 287.869C142.505 288.414 137.04 287.105 131.553 286.328C126.906 285.673 122.318 284.529 117.607 284.249C116.199 284.162 114.818 283.789 113.198 283.513C112.804 284.26 112.387 284.972 112.035 285.704C109.778 290.35 107.664 295.084 105.233 299.641C102.74 304.311 101.235 304.851 96.1987 303.764C95.2333 303.554 94.2579 303.394 93.2588 303.216C92.1276 304.36 91.9735 305.828 91.5484 307.171C90.579 310.212 89.1807 313.016 87.3438 315.623C83.2311 321.492 76.4028 322.063 71.3561 319.567C68.3709 318.092 65.8573 315.964 63.6238 313.511C61.6003 311.295 59.6609 309.001 57.7258 306.805C56.6232 306.787 56.6081 307.597 56.4688 308.263C55.2356 313.932 51.8946 318.094 47.2366 321.279C44.3951 323.225 41.3744 323.509 38.3683 321.739C35.4095 320.003 33.9307 317.334 34.0243 313.865C34.058 312.572 34.1255 311.248 34.4489 310.016C35.9095 304.553 38.3265 299.528 41.4217 294.799C43.2664 291.988 45.749 290.725 49.032 290.999C50.5766 291.124 52.1113 291.298 53.4126 291.422C55.1876 294.611 56.8051 297.466 58.3566 300.351C60.9075 305.085 64.3286 309.132 68.22 312.763C69.5668 314.019 71.1133 315.143 72.7264 316.016C77.1691 318.399 81.4121 317.343 84.4334 313.267C86.881 309.971 88.1467 306.187 89.0464 302.013C88.1472 301.56 87.3059 301.078 86.4279 300.708C85.1106 300.157 83.7303 299.768 82.4308 299.178C80.8364 298.453 79.9632 297.117 80.2829 295.352C80.613 293.53 81.0975 291.698 81.7565 289.971C82.4779 288.099 83.4867 286.345 84.3601 284.528C86.7083 279.606 89.0487 274.677 91.4848 269.579C91.0404 269.111 90.7338 268.649 90.3153 268.355C89.0113 267.461 88.4855 266.163 88.4134 264.669C88.3499 263.373 88.3675 262.08 88.4826 260.782C89.3937 250.016 90.9344 239.331 92.6449 228.661C93.9699 220.408 95.2379 212.161 96.5464 203.916C97.0179 200.953 97.5296 198 98.0592 194.794C96.991 194.515 96.2138 194.264 95.417 194.102C92.1812 193.445 89.108 192.36 86.0935 191.015C74.1705 185.714 63.8248 178.222 55.016 168.537C48.1604 161 41.4467 153.362 35.8313 144.8C35.7625 144.691 35.6102 144.644 35.4757 144.557C34.3642 144.35 34.0343 145.328 33.6117 145.975C31.1352 149.81 27.3173 151.202 23.1355 151.933C22.3104 152.081 21.4265 152.072 20.5869 151.966C17.7448 151.618 16.6155 150.403 16.3703 147.511C16.3189 146.952 16.4059 146.383 16.4381 145.548C15.2896 145.25 14.203 145.028 13.1701 144.677C11.969 144.27 10.693 143.91 9.64066 143.222C6.81652 141.36 6.28835 138.236 8.20105 135.346C8.66629 134.643 9.26605 134.027 9.88741 133.273C8.24607 130.614 7.855 127.929 9.77664 125.227C11.1916 123.251 12.1349 122.771 17.3613 121.671C17.1735 120.861 16.8964 120.056 16.8305 119.243C16.6938 117.534 16.4449 115.789 16.6399 114.101C16.9358 111.484 18.698 110.389 21.2492 111.126C22.4525 111.476 23.6458 112.087 24.6804 112.815C26.0868 113.786 27.3386 114.981 28.6589 116.081C29.2955 116.613 29.9317 117.154 30.6703 117.772C31.5682 116.791 32.3229 115.944 33.1013 115.114C34.9789 113.131 37.3734 112.257 39.9937 112.048C43.1593 111.793 45.4291 113.724 45.9535 116.946C46.3525 119.426 45.9822 121.869 45.2915 124.209C43.6421 129.73 41.5931 135.097 38.009 139.88C38.56 142.416 40.1353 144.475 41.6206 146.555C46.8758 153.94 52.8099 160.762 59.0641 167.277C62.3236 170.679 65.8676 173.854 69.5504 176.797C75.7277 181.737 82.614 185.541 89.9298 188.518C91.8944 189.323 94.0109 189.765 96.0865 190.214C97.2288 190.462 97.3673 190.239 98.6078 188.157C97.808 187.651 97.0444 187.049 96.1919 186.647C90.4636 183.944 85.1801 180.44 80.4651 176.285C72.2902 169.09 66.0902 160.334 62.5194 149.877C59.4581 140.931 58.233 131.703 58.5904 122.25C58.6678 120.246 58.7453 118.243 58.8234 116.223C50.8621 112.525 48.7123 105.391 47.7084 97.7851C47.1326 93.3733 47.2676 88.8334 48.7723 84.5349C49.4289 82.6603 50.2646 80.7681 51.4061 79.1498C54.7025 74.4619 60.4801 73.7927 64.8887 77.4763C65.9173 78.3596 66.8485 79.452 68.1681 80.7806ZM199.347 135.07C200.413 135.423 201.327 135.892 202.289 135.995C203.404 136.12 204.55 135.837 205.685 135.872C211.412 136.086 215.876 133.515 219.526 129.332C222.692 125.712 222.763 122.815 219.964 118.825C219.227 117.765 218.363 116.806 217.6 115.761C216.93 114.835 216.22 113.915 215.707 112.896C214.466 110.391 215.276 108.326 217.844 107.369C218.905 106.976 220.055 106.832 221.147 106.489C222.37 106.11 223.587 105.707 224.766 105.196C226.103 104.617 226.699 103.477 226.454 102.043C226.262 100.921 225.998 99.7728 225.494 98.7706C224.734 97.2343 223.751 95.8042 222.833 94.352C221.924 92.8919 220.932 91.4859 220.057 90.0025C218.823 87.9075 218.999 85.8833 220.612 84.0294C221.367 83.1659 222.178 82.3537 222.886 81.4475C224.977 78.7686 225.097 75.8824 223.465 72.9857C222.774 71.7552 221.811 70.6452 220.837 69.6084C218.773 67.3912 216.308 65.6825 213.672 64.2048C212.798 63.7206 211.873 63.3163 211.042 62.7601C209.658 61.8385 209.529 60.3594 210.698 59.0779C211.181 58.5479 211.788 58.1537 212.287 57.6407C214.67 55.1778 215.069 52.8183 213.352 49.8201C212.584 48.4801 211.512 47.243 210.377 46.1918C206.218 42.354 201.433 39.573 195.976 38.0353C191.53 36.7824 191.491 36.7482 191.45 31.9312C191.425 28.3843 190.05 25.5549 187.413 23.25C184.762 20.92 181.7 19.3275 178.298 18.7701C173.34 17.9561 168.571 18.3613 164.99 22.6369C164.811 22.8593 164.577 23.0386 164.375 23.2356C163.693 23.8725 162.82 24.2073 162.054 23.6781C161.548 23.331 161.213 22.5564 161.059 21.9117C160.899 21.234 161.05 20.4864 161.069 19.7665C161.128 16.5831 159.639 14.167 157.054 12.6175C155.373 11.6108 153.436 10.9381 151.532 10.4631C148.463 9.69752 145.307 9.91126 142.162 10.0354C137.881 10.2056 134.114 11.5341 130.717 14.2117C126.583 17.4668 126.071 17.2832 123.371 12.6419C120.967 8.51161 118.46 7.25181 113.756 8.07721C112.236 8.34604 110.676 8.82623 109.349 9.59383C104.801 12.2352 101.258 15.9472 98.8686 20.6865C97.9638 22.4777 97.2288 24.2838 98.1594 26.4408C98.7251 27.7566 97.6953 29.0025 96.2773 29.1688C95.7149 29.2371 95.1436 29.1168 94.575 29.1357C91.4469 29.2605 88.3015 29.2044 85.2122 29.5845C81.3078 30.0641 77.8371 31.707 74.9702 34.5198C72.0611 37.3719 71.2432 40.9026 71.7167 44.8109C71.9669 46.9416 73.2045 48.5045 74.9863 49.6298C76.4986 50.5891 77.9155 50.2426 79.4217 49.4737C80.2656 49.0477 81.3337 48.9088 82.2904 48.9213C83.15 48.9299 84.0473 49.4314 84.1646 50.3859C84.2377 51.0112 83.9806 51.7874 83.627 52.3306C82.7988 53.6089 81.493 54.2299 80.019 54.3777C78.9686 54.4763 78.088 54.8025 77.4068 55.6361C74.8771 58.7485 73.2965 62.2825 73.5372 66.3374C73.7881 70.5482 75.7034 72.4158 78.9376 73.1141C81.0936 73.5823 83.2392 73.6899 85.2231 72.7347C87.1329 71.8094 88.9234 70.6093 90.7199 69.4667C91.5598 68.9341 92.2625 68.1751 93.1021 67.6507C94.3407 66.8797 95.8812 67.7418 95.8249 69.1973C95.7809 70.3339 95.5899 71.4977 95.256 72.5821C94.4472 75.2452 94.2846 77.9823 94.4145 80.7062C94.7041 86.6465 98.6687 89.8544 104.477 89.0062C104.763 88.9681 105.041 88.9133 105.312 88.8337C109.487 87.6357 113.389 85.9603 116.196 82.4C116.46 82.0663 116.667 81.5501 117.004 81.4321C117.629 81.2106 118.458 80.9561 118.967 81.2132C119.453 81.4531 119.85 82.2956 119.908 82.912C119.971 83.5778 119.538 84.2818 119.438 84.9822C119.202 86.6846 118.787 88.4047 118.875 90.0951C119.244 97.5453 124.737 101.312 131.617 98.7853C134.003 97.9112 136.207 96.506 138.484 95.3165C139.113 94.9887 139.669 94.4615 140.326 94.2576C140.81 94.1043 141.613 94.1108 141.91 94.4171C142.339 94.8595 142.585 95.6225 142.641 96.2716C142.686 96.7974 142.259 97.3378 142.149 97.8904C141.816 99.5728 141.329 101.265 141.279 102.959C141.145 108.105 143.768 110.966 148.89 111.541C151.506 111.838 154.003 111.476 156.333 110.174C157.336 109.615 158.287 108.939 159.34 108.546C159.908 108.339 160.855 108.408 161.279 108.768C161.711 109.137 161.855 110.019 161.846 110.674C161.843 111.37 161.444 112.051 161.344 112.759C161.077 114.608 160.673 116.459 160.699 118.311C160.753 122.171 161.996 125.674 164.677 128.505C167.545 131.54 172.321 131.806 175.555 129.171C176.326 128.538 176.918 127.693 177.673 127.042C178.898 126 180.49 126.373 181.235 127.86C181.619 128.628 181.822 129.479 182.189 130.255C182.796 131.556 183.336 132.912 184.126 134.081C186.56 137.655 190.71 138.79 194.702 137.094C196.292 136.467 197.837 135.749 199.347 135.07ZM75.8615 76.0907C70.9161 82.3036 67.2694 89.9671 65.4419 97.5781C62.8319 108.435 61.7891 119.458 62.4539 130.589C63.0453 140.471 65.3147 149.969 70.5914 158.477C75.1652 165.86 80.6341 172.337 87.9129 177.319C95.1049 182.24 102.709 185.941 111.161 187.856C118.696 189.573 126.311 190.481 134.048 190.756C142.359 191.053 150.226 189.44 157.785 186.129C166.557 182.284 173.953 176.469 180.549 169.542C184.912 164.96 188.591 159.821 192.15 154.619C195.159 150.231 197.741 145.573 199.733 140.613C199.967 140.033 200.393 139.296 199.345 138.706C198.455 139.253 197.507 139.872 196.52 140.432C194.869 141.367 193.108 141.807 191.188 141.749C186.715 141.6 183.262 139.641 180.803 135.901C180.021 134.708 179.356 133.446 178.55 132.063C177.58 132.591 176.735 133.058 175.874 133.508C173.075 134.988 170.213 135.132 167.163 134.285C163.744 133.334 161.446 131.099 159.734 128.175C157.968 125.158 156.95 121.892 156.991 118.324C157.005 117.128 157.527 115.789 156.643 114.739C154.364 114.938 152.256 115.323 150.148 115.283C142.002 115.115 138.129 111.411 137.381 103.283C137.313 102.511 137.148 101.751 137.005 100.844C134.964 101.593 133.269 102.412 131.485 102.826C123.748 104.64 118.649 101.609 116.104 94.8525C115.707 93.7807 115.524 92.6353 115.243 91.5189C115.073 90.8654 114.904 90.2118 114.665 89.2608C112.966 89.9895 111.555 90.5901 110.144 91.1989C106.935 92.598 103.634 93.1911 100.118 92.6457C96.5943 92.1 94.0967 90.1854 92.3896 87.1302C91.0998 84.8201 90.5971 82.2947 90.6749 79.6526C90.7179 78.1228 90.728 76.6 90.7624 74.2428C85.7997 77.3349 81.0045 77.9848 75.8615 76.0907ZM174.344 293.731C174.339 293.444 174.416 293.12 174.311 292.886C171.034 285.545 167.749 278.195 164.414 270.875C164.025 270.025 163.346 269.311 163 268.831C158.48 269.925 154.379 271.282 150.178 271.881C134.654 274.106 119.149 272.901 103.672 271.205C100.998 270.913 98.336 270.515 95.4705 270.143C94.5317 271.973 93.6575 273.602 92.8468 275.266C90.907 279.277 88.9992 283.298 87.0834 287.319C86.2799 289.008 85.4284 290.678 84.7127 292.403C84.2828 293.451 83.9149 294.575 84.7723 296.107C88.248 297.273 91.9831 298.654 95.7931 299.776C99.9321 300.992 100.567 300.722 102.544 296.802C104.803 292.312 106.83 287.714 108.953 283.153C109.254 282.501 109.467 281.813 109.792 281.17C110.661 279.468 111.948 278.928 113.64 279.427C115.686 280.023 117.805 280.383 119.91 280.726C123.279 281.282 126.678 281.709 130.056 282.249C136.24 283.233 142.395 284.552 148.72 284.002C149.428 283.939 150.146 284.033 150.858 284.085C153.521 284.253 154.01 284.616 154.788 287.144C155.387 289.067 155.871 291.027 156.511 292.927C157.013 294.42 157.588 295.917 158.313 297.312C159.369 299.368 160.64 299.859 162.922 299.382C165.63 298.783 171.791 295.753 174.344 293.731ZM93.7821 248.556C95.7891 250.361 98.1323 250.394 100.352 250.677C109.959 251.892 119.567 253.066 129.178 254.183C140.614 255.509 151.859 254.83 162.778 250.863C162.475 246.322 160.468 237.793 159.134 235.162C155.901 235.7 152.715 236.47 149.494 236.706C145.223 237.016 140.993 237.524 136.819 238.46C133.865 239.123 130.887 239.131 127.898 239.016C118.908 238.635 110.028 237.522 101.357 234.984C99.5837 234.465 97.8088 234.003 95.6234 234.295C94.7829 239.037 93.7808 243.765 93.7821 248.556ZM96.3968 229.608C96.9378 229.883 97.2847 230.142 97.6704 230.239C106.217 232.428 114.804 234.423 123.646 235.068C128.637 235.433 133.547 235.377 138.496 234.315C142.235 233.518 146.099 233.233 149.923 232.955C152.233 232.783 154.432 232.343 156.565 231.525C157.298 231.242 157.914 230.635 158.605 230.171C157.648 226.391 157.109 222.718 155.699 219.298C149.969 219.371 144.443 219.427 138.906 219.516C138.054 219.533 137.205 219.68 136.363 219.828C130.126 220.856 123.9 220.738 117.655 219.866C111.337 218.975 104.996 218.271 98.2387 217.428C97.3675 221.497 96.6767 225.516 96.3968 229.608ZM92.273 265.138C93.9109 265.578 95.256 266.04 96.6332 266.298C103.93 267.669 111.31 268.347 118.715 268.814C128.693 269.453 138.671 269.675 148.604 268.307C151.557 267.897 154.54 267.341 157.344 266.36C164.153 263.978 164.896 264.261 163.746 255.822C163.735 255.699 163.585 255.595 163.36 255.316C161.921 255.203 160.458 255.67 158.966 256.08C153.153 257.665 147.205 258.548 141.213 258.464C135.229 258.388 129.243 257.944 123.289 257.313C115.064 256.446 106.876 255.269 98.6748 254.199C96.8666 253.965 95.0788 253.626 93.1037 253.304C92.4027 257.167 92.1792 260.851 92.273 265.138ZM245.317 149.418C241.823 150.405 240.228 151.785 238.984 154.8C238.654 155.581 238.45 156.442 238.033 157.171C237.432 158.22 235.706 158.178 235.205 157.078C234.81 156.178 234.695 155.158 234.374 154.22C233.527 151.788 232.656 149.347 229.924 148.054C229.408 148.599 228.831 149.043 228.492 149.628C227.537 151.245 227.03 153.019 226.771 154.909C225.729 162.346 228.853 168.625 232.033 174.906C232.222 175.282 232.542 175.597 232.822 175.919C235.415 178.919 238.598 180.933 242.372 182.152C244.552 182.851 246.256 182.622 247.757 180.739C247.557 180.24 247.425 179.661 247.127 179.191C246.592 178.343 245.907 177.596 245.38 176.749C244.708 175.666 245.118 174.298 246.278 173.884C247.207 173.552 248.231 173.501 249.168 173.202C250.474 172.777 252.077 173.069 253.066 171.608C252.784 170.32 251.647 169.932 250.65 169.492C249.477 168.98 248.188 168.734 247.042 168.173C246.485 167.898 245.926 167.238 245.755 166.633C245.482 165.714 246.11 164.993 246.898 164.548C247.769 164.049 248.678 163.634 249.556 163.16C251.105 162.328 252.382 161.181 253.111 159.555C253.51 158.662 253.817 157.642 252.619 156.752C251.907 156.896 251.036 156.969 250.262 157.267C248.936 157.781 247.698 158.543 246.358 159.008C245.782 159.206 244.917 159.14 244.401 158.834C243.585 158.335 243.541 157.375 243.891 156.521C244.259 155.593 244.795 154.73 245.188 153.803C245.75 152.482 246.201 151.115 245.317 149.418ZM20.5316 115.21C20.2147 117.531 20.0991 117.584 20.6485 118.899C21.5244 121.005 22.5404 123.051 23.54 125.104C23.9614 125.956 24.0762 126.763 23.3757 127.464C22.7008 128.134 21.9029 128.21 21.0364 127.751C20.2811 127.353 19.529 126.873 18.7172 126.678C17.4876 126.377 16.206 126.164 14.9495 126.14C13.6687 126.115 12.9189 127.044 12.4376 128.163C11.9568 129.267 12.4582 130.146 13.2096 130.855C13.8199 131.435 14.5656 131.874 15.2691 132.351C15.7357 132.664 16.2789 132.882 16.6784 133.249C17.5325 134.027 17.0988 135.804 15.978 136.047C14.7506 136.319 13.4138 136.276 12.276 136.748C11.6496 137.002 11.0681 137.987 10.9505 138.719C10.8758 139.183 11.6009 139.94 12.1382 140.313C13.6318 141.337 15.3678 141.339 17.0809 141.094C17.9128 140.979 18.7068 140.583 19.5338 140.386C20.3935 140.182 21.3516 140.161 21.796 141.047C22.0745 141.606 22.084 142.409 21.946 143.043C21.7982 143.717 21.2804 144.311 21.0358 144.973C20.7094 145.861 20.4948 146.795 20.2051 147.782C20.854 147.996 21.2498 148.249 21.6315 148.239C27.0657 148.056 32.0223 144.071 33.3644 138.734C33.5936 137.842 33.8047 136.999 34.6451 136.663C36.4248 135.954 37.2292 134.453 37.8837 132.841C39.2128 129.518 40.6064 126.206 41.7034 122.801C42.2112 121.207 42.1832 119.413 42.2088 117.702C42.2269 116.605 41.296 115.922 40.2009 115.921C36.9965 115.92 34.061 118.411 33.6305 121.571C33.5169 122.411 33.6535 123.284 33.6284 124.143C33.6086 125.076 33.2944 125.858 32.2736 126.031C31.3021 126.19 30.6338 125.64 30.1859 124.845C29.7605 124.1 29.4924 123.27 29.0588 122.525C27.0792 119.173 23.7571 116.342 20.5316 115.21ZM153.389 206.466C151.767 206.64 150.216 206.695 148.711 207.005C146.013 207.548 143.349 207.412 140.643 207.111C138.39 206.86 136.104 206.805 133.84 206.815C123.3 206.891 112.751 207.163 102.447 204.267C101.837 204.096 101.132 204.273 100.328 204.291C99.8797 207.296 99.0766 210.025 99.1073 213.007C101.16 214.061 103.249 214.371 105.365 214.608C111.164 215.258 116.975 215.835 122.764 216.558C126.623 217.035 130.436 216.609 134.267 216.34C138.522 216.037 142.782 215.801 147.041 215.597C148.886 215.505 150.746 215.65 152.592 215.541C153.372 215.498 154.127 215.06 155.081 214.737C154.501 211.897 154.647 209.159 153.389 206.466ZM152.627 202.251C151.857 199.069 151.105 196.075 149.75 193.148C133.893 196.016 118.53 193.858 103.235 189.745C101.656 193.025 101.797 196.314 101.268 199.512C103.699 201.048 106.25 201.359 108.731 201.815C116.045 203.179 123.433 203.219 130.846 203.072C134.816 202.996 138.797 203.256 142.763 203.492C146.065 203.693 149.25 203.341 152.627 202.251ZM58.5537 111.447C58.834 111.122 59.0846 110.935 59.1913 110.693C59.3607 110.299 59.4743 109.877 59.5313 109.453C60.476 102.013 61.9831 94.7173 64.6487 87.671C66.0131 84.0631 63.901 80.3618 60.2069 79.1789C58.2439 78.5461 56.5494 78.9392 55.1207 80.4318C53.5988 82.0272 52.7041 83.9744 52.1038 86.0722C51.2223 89.1501 51.0105 92.3194 51.1801 95.4871C51.386 99.3932 52.2288 103.193 54.0077 106.701C55.0328 108.723 56.1969 110.717 58.5537 111.447ZM37.7766 312.913C37.7687 313.117 37.7495 313.403 37.7466 313.689C37.7009 315.71 38.3819 317.399 40.2015 318.387C41.997 319.365 43.7515 319.097 45.4355 317.926C49.2131 315.271 51.8371 311.818 52.8824 307.232C53.2044 305.827 53.4377 304.411 53.7999 303.017C54.1433 301.687 54.0602 300.48 53.3109 299.296C52.7758 298.449 52.3074 297.554 51.8886 296.637C51.2597 295.278 50.1988 294.811 48.7862 294.838C46.9677 294.875 45.4528 295.447 44.4011 297.052C41.7113 301.157 39.5868 305.538 38.2435 310.277C38.0007 311.103 37.9344 311.977 37.7766 312.913ZM193.278 160.084C199.484 159.873 204.447 158.452 208.922 155.374C210.714 154.141 212.131 152.533 213.21 150.634C213.628 149.897 213.992 149.084 214.194 148.264C214.929 145.205 213.969 143.17 211.066 142.1C208.81 141.259 206.433 140.856 203.869 141.068C202.289 144.184 200.83 147.281 199.166 150.263C197.439 153.374 195.514 156.378 193.278 160.084ZM210.958 305.391C208.854 305.892 208.209 307.046 208.398 308.675C209.009 313.841 210.366 318.816 212.495 323.549C212.831 324.308 213.43 324.978 214.032 325.566C214.766 326.291 216.072 326.308 216.742 325.556C217.394 324.828 218.116 323.988 218.338 323.087C218.751 321.433 218.923 319.695 219.006 317.987C219.161 314.807 218.115 312.064 215.75 309.876C214.183 308.423 212.625 306.963 210.958 305.391Z" fill="#6B4434"/>
<path fill-rule="evenodd" clip-rule="evenodd" d="M98.8093 144.546C99.1272 141.57 99.3806 138.582 99.8197 135.618C99.8863 135.154 100.905 134.415 101.356 134.498C109.057 135.893 116.903 136.483 124.46 138.692C127.195 139.494 129.922 140.312 132.639 141.162C133.585 141.461 134.537 141.792 135.429 142.228C138.598 143.784 139.493 145.595 138.085 148.858C136.144 153.328 134.113 157.794 131.64 161.973C127.708 168.619 121.627 171.045 114.107 169.984C107.903 169.114 101.65 163.394 100.09 156.962C99.0943 152.911 98.6708 148.759 98.8093 144.546ZM134.682 146.228C133.951 145.823 133.376 145.383 132.728 145.162C123.802 142.065 114.66 139.959 105.261 139.039C103.862 138.903 103.135 139.464 102.987 140.982C102.526 145.575 102.511 150.152 103.389 154.723C104.401 160.011 107.571 163.418 112.242 165.564C116.052 167.308 123.095 167.056 126.999 161.991C127.955 160.75 128.929 159.477 129.649 158.08C131.289 154.892 132.802 151.634 134.307 148.376C134.59 147.772 134.554 147.018 134.682 146.228Z" fill="#6B4434"/>
<path fill-rule="evenodd" clip-rule="evenodd" d="M134.681 146.229C134.553 147.018 134.589 147.773 134.306 148.377C132.801 151.635 131.288 154.885 129.648 158.081C128.929 159.47 127.955 160.743 126.998 161.991C123.095 167.057 116.043 167.317 112.241 165.565C107.57 163.419 104.4 160.012 103.388 154.724C102.51 150.153 102.525 145.575 102.986 140.983C103.142 139.466 103.862 138.904 105.26 139.04C114.659 139.96 123.801 142.066 132.727 145.163C133.375 145.392 133.951 145.824 134.681 146.229Z" fill="#FFF2E1"/>
<path fill-rule="evenodd" clip-rule="evenodd" d="M95.8949 114.994C95.7594 118.919 93.0197 122.007 89.6422 122.286C87.4042 122.47 85.7613 121.53 84.709 119.581C83.2929 116.971 84.218 111.93 86.4831 109.995C88.2452 108.482 90.3375 108.08 92.4987 108.835C94.42 109.499 95.3806 111.092 95.6935 113.07C95.7959 113.778 95.841 114.5 95.8949 114.994Z" fill="#6B4434"/>
<path fill-rule="evenodd" clip-rule="evenodd" d="M151.351 137.456C151.709 134.481 154.436 132.571 157.613 133.063C160.621 133.531 162.868 136.878 162.392 140.176C162.047 142.603 158.618 145.042 155.976 144.768C153.318 144.493 150.948 140.749 151.351 137.456Z" fill="#6B4434"/>
</svg>
